<svg width="70" height="79" viewBox="0 0 70 79" fill="none" xmlns="http://www.w3.org/2000/svg">
<path d="M30.4653 79C24.9039 78.9959 19.4059 77.8214 14.3291 75.5531C9.25231 73.2847 4.71069 69.6387 1 65.5L6.89068 60.5653C10.4077 64.4945 14.8525 67.4821 19.8205 69.2563C24.7885 71.0305 30.1218 71.5348 35.3348 70.7233C40.5477 69.9118 45.4746 67.8104 49.667 64.6103C53.8593 61.4101 57.1838 57.2131 59.3377 52.4012C61.4916 47.5893 62.4066 42.3155 61.9992 37.0601C61.5919 31.8047 59.8751 26.7345 57.0054 22.3114C54.1356 17.8882 50.204 14.2526 45.5686 11.7355C40.9331 9.21842 35.7411 7.9999 30.4653 8V0C40.9505 0 51.0063 4.1616 58.4205 11.5693C65.8347 18.977 70 29.0239 70 39.5C70 49.9761 65.8347 60.023 58.4205 67.4307C51.0063 74.8384 40.9505 79 30.4653 79Z" fill="white"/>
<circle cx="31" cy="4" r="4" fill="white"/>
<circle cx="4" cy="63" r="4" fill="white"/>
</svg>
