<svg width="39" height="18" viewBox="0 0 39 18" fill="none" xmlns="http://www.w3.org/2000/svg">
<path d="M2.70823 1.41677V6.79161H8.98187V1.41677H10.9233V14H8.98187V8.66111H2.70823V14H0.766816V1.41677H2.70823ZM23.0165 9.2723C23.0165 10.231 22.8008 11.0819 22.3694 11.8249C21.9499 12.5559 21.3747 13.1312 20.6437 13.5506C19.9246 13.97 19.1157 14.1798 18.2169 14.1798C17.3181 14.1798 16.5032 13.97 15.7722 13.5506C15.0412 13.1312 14.4599 12.5559 14.0285 11.8249C13.6091 11.0819 13.3993 10.231 13.3993 9.2723C13.3993 8.31358 13.6091 7.4687 14.0285 6.73768C14.4599 5.99467 15.0412 5.41344 15.7722 4.994C16.5032 4.57456 17.3181 4.36484 18.2169 4.36484C19.1157 4.36484 19.9246 4.57456 20.6437 4.994C21.3747 5.41344 21.9499 5.99467 22.3694 6.73768C22.8008 7.4687 23.0165 8.31358 23.0165 9.2723ZM21.129 9.2723C21.141 8.63715 21.0152 8.07989 20.7515 7.60053C20.4999 7.10918 20.1523 6.73169 19.7089 6.46804C19.2655 6.1924 18.7682 6.05459 18.2169 6.05459C17.6657 6.05459 17.1623 6.1924 16.7069 6.46804C16.2635 6.73169 15.91 7.10918 15.6463 7.60053C15.3947 8.07989 15.2748 8.63715 15.2868 9.2723C15.2748 9.89547 15.3947 10.4527 15.6463 10.9441C15.91 11.4234 16.2635 11.8009 16.7069 12.0766C17.1623 12.3522 17.6657 12.49 18.2169 12.49C18.7682 12.49 19.2655 12.3522 19.7089 12.0766C20.1523 11.8009 20.4999 11.4234 20.7515 10.9441C21.0152 10.4527 21.141 9.89547 21.129 9.2723ZM27.1193 14.4314C27.1193 15.0666 26.9755 15.6178 26.6878 16.0852C26.4122 16.5526 26.0287 16.9121 25.5374 17.1638C25.046 17.4154 24.4948 17.5413 23.8836 17.5413L23.1825 16.1212C23.9135 16.1212 24.4408 15.9294 24.7644 15.5459C25.1 15.1625 25.2677 14.6411 25.2677 13.982V4.56258H27.1193V14.4314ZM26.2384 2.40545C25.819 2.40545 25.5074 2.29759 25.3037 2.08188C25.1 1.86617 24.9981 1.58454 24.9981 1.23701C24.9981 0.937408 25.1 0.667767 25.3037 0.428086C25.5074 0.188406 25.819 0.0685655 26.2384 0.0685655C26.6579 0.0685655 26.9695 0.176422 27.1732 0.392134C27.3769 0.607847 27.4788 0.889472 27.4788 1.23701C27.4788 1.53661 27.3769 1.80625 27.1732 2.04593C26.9695 2.28561 26.6579 2.40545 26.2384 2.40545ZM37.8635 12.7597H37.8455C37.462 13.1312 36.9347 13.4607 36.2636 13.7483C35.5925 14.036 34.8914 14.1798 34.1604 14.1798C33.1777 14.1798 32.3089 13.976 31.5539 13.5686C30.8109 13.1491 30.2296 12.5799 29.8102 11.8609C29.3908 11.1298 29.181 10.3029 29.181 9.38016C29.181 8.32556 29.4027 7.42676 29.8462 6.68375C30.2896 5.92876 30.8768 5.35352 31.6078 4.95805C32.3388 4.55059 33.1358 4.34686 33.9986 4.34686C34.7896 4.34686 35.5086 4.5446 36.1557 4.94007C36.8029 5.32356 37.3182 5.85685 37.7017 6.53994C38.0852 7.22303 38.2769 8.01997 38.2769 8.93076L38.2589 9.7217H31.0326C31.1404 10.5726 31.488 11.2497 32.0752 11.753C32.6744 12.2443 33.4294 12.49 34.3402 12.49C34.9993 12.49 35.5326 12.3702 35.94 12.1305C36.3475 11.8788 36.683 11.6391 36.9467 11.4114L37.8635 12.7597ZM33.9986 6.05459C33.2916 6.05459 32.6744 6.22236 32.1471 6.55792C31.6198 6.88149 31.2723 7.44474 31.1045 8.24767H36.3894V8.12183C36.3535 7.71438 36.2157 7.35486 35.976 7.04327C35.7483 6.73169 35.4607 6.49201 35.1131 6.32423C34.7656 6.14447 34.3941 6.05459 33.9986 6.05459Z" fill="white"/>
</svg>
